PathFileType	4	(X/Y/Z)	3_coords_data.trc
DataRate	CameraRate	NumFrames	NumMarkers	Units	OrigDataRate	OrigDataStartFrame	OrigNumFrames
30.0	30.0	8	21	m	30.0	11	62
Frame#	Time	THUMB_TIP	THUMB_IP	THUMB_MCP	THUMB_CMC	INDEX_TIP	INDEX_DIP	INDEX_PIP	INDEX_MCP	MIDDLE_TIP	MIDDLE_DIP	MIDDLE_PIP	MIDDLE_MCP	RING_TIP	RING_DIP	RING_PIP	RING_MCP	PINKY_TIP	PINKY_DIP	PINKY_PIP	PINKY_MCP	WRIST
X1	Y1	Z1	X2	Y2	Z2	X3	Y3	Z3	X4	Y4	Z4	X5	Y5	Z5	X6	Y6	Z6	X7	Y7	Z7	X8	Y8	Z8	X9	Y9	Z9	X10	Y10	Z10	X11	Y11	Z11	X12	Y12	Z12	X13	Y13	Z13	X14	Y14	Z14	X15	Y15	Z15	X16	Y16	Z16	X17	Y17	Z17	X18	Y18	Z18	X19	Y19	Z19	X20	Y20	Z20	X21	Y21	Z21
10	0.3333333333333333	-0.13553599548339842	-0.04880179977416992	0.9222890014648437	-0.12644000244140624	-0.06959880065917969	0.935197021484375	-0.1256429977416992	-0.07410479736328125	0.966469970703125	-0.1256060028076172	-0.05439070129394531	0.99464697265625	-0.20033700561523438	-0.10616100311279297	0.8880070190429687	-0.19255799865722656	-0.10080699920654297	0.9080050048828125	-0.1836009979248047	-0.09507720184326172	0.9285009765625	-0.169197998046875	-0.08373750305175781	0.9638619995117188	-0.14062199401855469	-0.06563330078125	0.9359810180664062	-0.15032699584960937	-0.06649099731445313	0.918968994140625	-0.17695700073242188	-0.06920580291748046	0.922155029296875	-0.1795709991455078	-0.06504669952392578	0.9637529907226563	-0.14053300476074218	-0.04954779815673828	0.9339810180664062	-0.15288299560546875	-0.04787900161743164	0.9194910278320313	-0.1768070068359375	-0.045411300659179685	0.924927001953125	-0.17868899536132812	-0.04441279983520508	0.9621580200195312	-0.182468994140625	-0.011879199981689454	0.8972789916992188	-0.17953599548339844	-0.01579810047149658	0.9158079833984375	-0.17547999572753906	-0.019987899780273436	0.934156982421875	-0.16513800048828126	-0.02628030014038086	0.9594080200195313	-0.13825599670410157	-0.036037200927734374	1.023010009765625
11	0.36666666666666664	-0.13549000549316406	-0.04900669860839844	0.9223759765625	-0.12640699768066407	-0.0697030029296875	0.9352219848632812	-0.12565499877929687	-0.07409310150146485	0.9669140014648437	-0.12533200073242187	-0.05470309829711914	0.9940670166015625	-0.20108299255371093	-0.10623300170898438	0.8877890014648437	-0.19276400756835937	-0.10078600311279297	0.9076790161132813	-0.18355499267578124	-0.09505829620361328	0.928427001953125	-0.16885200500488282	-0.08371510314941406	0.9640150146484375	-0.14226800537109374	-0.0661165008544922	0.9342750244140625	-0.15000900268554687	-0.06646440124511718	0.9193319702148437	-0.1758179931640625	-0.06945220184326172	0.9221640014648438	-0.17936300659179688	-0.06509439849853516	0.9636900024414062	-0.142322998046875	-0.04881420135498047	0.9300120239257812	-0.15300100708007813	-0.04784230041503906	0.9193489990234375	-0.17677499389648438	-0.0453406982421875	0.9245869750976563	-0.17685299682617187	-0.04426259994506836	0.9613629760742187	-0.1831820068359375	-0.01216349983215332	0.8970330200195312	-0.17950599670410156	-0.015941800117492674	0.9157360229492187	-0.17544500732421875	-0.020150800704956055	0.9340609741210938	-0.16533900451660155	-0.02636199951171875	0.9594010009765624	-0.13791200256347655	-0.03598490142822266	1.0227999877929688
12	0.4	-0.13548100280761718	-0.04898429870605469	0.922447021484375	-0.12595899963378906	-0.06968810272216797	0.9354920043945313	-0.1257269973754883	-0.07415769958496093	0.9667000122070313	-0.1255459976196289	-0.054358001708984374	0.994719970703125	-0.20113400268554688	-0.10620200347900391	0.8878040161132813	-0.19263299560546876	-0.10081600189208985	0.90797802734375	-0.18378399658203126	-0.09520980072021484	0.92835498046875	-0.16938900756835937	-0.08357389831542969	0.964	-0.14158000183105468	-0.0663739013671875	0.936510986328125	-0.1500330047607422	-0.0664843978881836	0.9193560180664062	-0.17683900451660156	-0.0692302017211914	0.9222000122070313	-0.17924400329589843	-0.06515560150146485	0.9635700073242187	-0.1409320068359375	-0.04958100128173828	0.9333870239257812	-0.15286399841308593	-0.047881900787353514	0.919551025390625	-0.17791900634765626	-0.045082298278808594	0.9248690185546875	-0.17883999633789063	-0.044480701446533204	0.9621209716796875	-0.18327000427246093	-0.012203399658203124	0.8969290161132812	-0.17939300537109376	-0.016055299758911134	0.9157440185546875	-0.17498800659179686	-0.019996200561523438	0.9337990112304687	-0.1654290008544922	-0.02640850067138672	0.9593159790039063	-0.13803799438476563	-0.03598979949951172	1.0228200073242188
13	0.43333333333333335	-0.13561599731445312	-0.04894509887695313	0.9227379760742187	-0.12654299926757812	-0.06958049774169922	0.9353820190429688	-0.1257269973754883	-0.07419960021972656	0.9668250122070312	-0.1255790023803711	-0.0548390998840332	0.9946240234375	-0.20045199584960938	-0.10605799865722657	0.8880859985351562	-0.19339300537109375	-0.10061499786376953	0.9078619995117188	-0.18367799377441407	-0.09507710266113281	0.9284390258789063	-0.16896299743652343	-0.08379910278320313	0.9639229736328125	-0.14056700134277345	-0.06541249847412109	0.9369630126953125	-0.1500959930419922	-0.06658139801025391	0.9191420288085937	-0.17649699401855468	-0.06932640075683594	0.9225650024414063	-0.17919599914550782	-0.06517739868164063	0.963698974609375	-0.141197998046875	-0.049222599029541014	0.933468994140625	-0.15327999877929688	-0.047787601470947266	0.9191510009765625	-0.17776699829101564	-0.044980499267578126	0.9248519897460937	-0.1794320068359375	-0.04447890090942383	0.962322998046875	-0.18333299255371094	-0.012247400283813476	0.896989990234375	-0.17936000061035157	-0.015945599555969237	0.91572900390625	-0.17525799560546876	-0.020114500045776366	0.9341790161132812	-0.16494099426269532	-0.026250200271606447	0.9594349975585937	-0.13808900451660155	-0.035858699798583984	1.0231799926757812
14	0.4666666666666667	-0.13554800415039062	-0.04886890029907227	0.9228189697265625	-0.12675299835205078	-0.06953040313720703	0.9351240234375	-0.12564800262451173	-0.07404810333251953	0.9671229858398438	-0.1256539993286133	-0.05432749938964844	0.9944849853515625	-0.20190199279785156	-0.10580400085449218	0.8872890014648438	-0.19313999938964843	-0.10049600219726562	0.908041015625	-0.18398699951171876	-0.09483640289306641	0.9285460205078125	-0.16896000671386718	-0.08345890045166016	0.9642620239257812	-0.14206700134277345	-0.06604660034179688	0.9346129760742188	-0.15059100341796874	-0.06583940124511718	0.9189569702148438	-0.1768249969482422	-0.0690802001953125	0.92235302734375	-0.1795919952392578	-0.06504759979248047	0.9639219970703125	-0.1403280029296875	-0.04917259979248047	0.934	-0.15275900268554687	-0.04770240020751953	0.9197919921875	-0.17718299865722656	-0.045007598876953124	0.9249619750976562	-0.17758399963378907	-0.04409700012207031	0.9619810180664062	-0.18306599426269532	-0.01198509979248047	0.897030029296875	-0.17922599792480468	-0.015841400146484375	0.9158289794921874	-0.17495199584960938	-0.02001759910583496	0.9343900146484375	-0.1651529998779297	-0.02620669937133789	0.9594439697265625	-0.1381529998779297	-0.03571429824829102	1.023010009765625
15	0.5	-0.13550799560546875	-0.048703800201416014	0.92289501953125	-0.12651899719238283	-0.06934049987792969	0.9352969970703126	-0.12551599884033204	-0.07396800231933594	0.9671740112304688	-0.12575199890136718	-0.05450310134887695	0.9944569702148438	-0.20171600341796875	-0.10577200317382812	0.8871719970703125	-0.19266799926757813	-0.10043499755859375	0.9077739868164062	-0.18493699645996095	-0.09484860229492187	0.928219970703125	-0.16977200317382812	-0.08368199920654297	0.9639089965820312	-0.14039399719238282	-0.06509809875488282	0.939072998046875	-0.149072998046875	-0.06667070007324219	0.9194359741210938	-0.17688200378417968	-0.0690073013305664	0.9223599853515625	-0.17950900268554687	-0.06494100189208984	0.9637009887695313	-0.14066200256347655	-0.04911640167236328	0.9344000244140624	-0.1528260040283203	-0.04758489990234375	0.9198510131835937	-0.17698699951171876	-0.04490879821777344	0.9249140014648437	-0.1765709991455078	-0.0438129997253418	0.9622529907226562	-0.1832169952392578	-0.011888099670410155	0.8970189819335938	-0.17923699951171876	-0.015574999809265137	0.9157479858398437	-0.17458900451660156	-0.019591699600219725	0.9339099731445313	-0.16515899658203126	-0.02612100028991699	0.959343017578125	-0.13827099609375	-0.03568550109863281	1.0233499755859374
16	0.5333333333333333	-0.1355570068359375	-0.048627601623535154	0.9228170166015625	-0.12659500122070313	-0.06939990234375	0.9351119995117188	-0.1257220001220703	-0.07386299896240234	0.9667919921875	-0.1258669967651367	-0.054278800964355466	0.994635009765625	-0.20104299926757813	-0.10572499847412109	0.8877219848632812	-0.19326600646972655	-0.1002969970703125	0.9076929931640625	-0.18502099609375	-0.09473809814453125	0.9282230224609375	-0.16871400451660157	-0.08343609619140625	0.9640650024414062	-0.14251400756835939	-0.0661509017944336	0.9359940185546874	-0.15000999450683594	-0.06595980072021485	0.9197769775390625	-0.17703599548339843	-0.06890989685058593	0.922375	-0.17923500061035155	-0.0647208023071289	0.9638800048828124	-0.14078799438476564	-0.049084800720214844	0.9344400024414062	-0.15307400512695313	-0.047367000579833986	0.919739990234375	-0.17668800354003905	-0.04492620086669922	0.9248670043945313	-0.17813800048828124	-0.0441692008972168	0.9624180297851562	-0.18321499633789062	-0.011613900184631348	0.8968170166015625	-0.17928399658203126	-0.015433899879455567	0.9157990112304687	-0.17608399963378907	-0.019807500839233397	0.9339769897460938	-0.16528399658203125	-0.026137599945068358	0.959260986328125	-0.13839599609375	-0.03569329833984375	1.0233300170898438
17	0.5666666666666667	-0.13559599304199219	-0.048581298828125	0.9228569946289062	-0.1265459976196289	-0.06928269958496094	0.935323974609375	-0.12584100341796875	-0.07387729644775391	0.9669130249023438	-0.12592800140380858	-0.05433560180664063	0.9944660034179688	-0.2010559997558594	-0.10562999725341797	0.8876669921875	-0.19323599243164064	-0.10020700073242188	0.9077039794921875	-0.18557200622558595	-0.0948219985961914	0.9278499755859375	-0.16928599548339843	-0.08338749694824218	0.9640269775390625	-0.14251100158691407	-0.06604060363769532	0.934448974609375	-0.14978199768066405	-0.06622709655761719	0.9197899780273437	-0.17629800415039062	-0.06897589874267578	0.9222659912109376	-0.17939500427246094	-0.0646708984375	0.9638079833984375	-0.14110200500488282	-0.049161598205566405	0.9334810180664063	-0.15296200561523438	-0.04743529891967774	0.92002099609375	-0.17780799865722657	-0.044576801300048825	0.9246290283203125	-0.17578999328613282	-0.043914100646972654	0.9623900146484375	-0.18274400329589843	-0.011598099708557129	0.8971199951171875	-0.17922200012207032	-0.015359399795532226	0.9158090209960937	-0.175802001953125	-0.01959550094604492	0.9337839965820313	-0.16529899597167969	-0.025992000579833984	0.9590570068359375	-0.13816700744628907	-0.035830501556396485	1.0228099975585938
